<?xml version="1.0" standalone="no"?>
<!DOCTYPE svg PUBLIC "-//W3C//DTD SVG 20010904//EN"
 "http://www.w3.org/TR/2001/REC-SVG-20010904/DTD/svg10.dtd">
<svg version="1.0" xmlns="http://www.w3.org/2000/svg"
 width="700.000000pt" height="700.000000pt" viewBox="0 0 700.000000 700.000000"
 preserveAspectRatio="xMidYMid meet">

<g transform="translate(0.000000,700.000000) scale(0.100000,-0.100000)"
fill="#000000" stroke="none">
<path d="M3470 6889 c-247 -29 -417 -278 -356 -519 33 -128 122 -234 241 -286
l60 -26 -3 -202 c-2 -110 -6 -204 -10 -208 -7 -7 -319 -148 -328 -148 -2 0 -4
82 -4 183 -1 124 -5 189 -13 203 -7 12 -96 93 -199 179 -174 147 -187 160
-180 184 4 14 7 73 7 131 0 98 -2 109 -32 171 -82 168 -272 271 -445 240 -141
-25 -262 -114 -318 -234 -102 -218 -12 -467 206 -569 122 -57 278 -48 389 23
25 16 48 29 51 29 3 0 72 -56 154 -125 l150 -126 0 -179 0 -179 -67 -21 c-122
-38 -365 -98 -501 -125 -74 -14 -142 -30 -151 -35 -44 -23 -46 -34 -51 -269
l-5 -226 -102 -3 -102 -3 -127 152 -127 152 17 26 c76 116 97 251 56 370 -38
114 -123 210 -228 259 -51 24 -69 27 -172 27 -111 0 -118 -1 -183 -33 -320
-158 -319 -606 2 -765 61 -30 73 -32 166 -32 55 0 114 4 131 8 30 8 33 4 173
-163 200 -238 172 -220 352 -220 l149 0 0 -140 0 -140 -224 0 c-123 0 -231 -3
-240 -6 -9 -3 -16 -1 -16 6 0 25 -53 120 -91 164 -84 96 -194 146 -319 146
-165 0 -311 -94 -387 -249 -26 -51 -28 -66 -28 -171 0 -109 2 -119 32 -183 62
-131 180 -223 320 -249 177 -33 374 75 448 245 l29 67 238 0 238 0 0 -185 0
-185 -127 0 c-71 0 -144 -5 -164 -10 -30 -8 -63 -42 -194 -199 -140 -167 -161
-188 -180 -181 -83 31 -220 18 -318 -32 -244 -123 -308 -456 -126 -653 98
-106 203 -150 341 -142 158 8 285 92 355 235 37 73 38 80 38 181 0 95 -3 112
-28 166 -15 33 -35 67 -43 77 -9 9 -14 21 -13 27 2 6 58 75 124 155 l120 145
107 0 106 1 46 -80 46 -79 0 -215 c0 -118 4 -226 10 -240 11 -30 65 -66 98
-66 32 0 79 26 94 53 7 12 15 54 18 93 l5 72 75 -85 c129 -145 379 -358 553
-472 l67 -43 0 -285 0 -285 34 -34 c38 -38 77 -44 125 -19 54 27 61 61 61 289
l0 205 82 -39 c45 -22 91 -40 102 -40 27 0 138 52 274 127 128 71 225 135 348
229 46 35 86 64 89 64 3 0 5 -50 5 -111 0 -109 0 -111 29 -140 24 -23 38 -29
73 -29 24 0 54 7 67 16 44 31 51 69 51 280 l0 197 78 86 c153 168 296 355 383
504 l34 57 111 0 112 0 126 -151 126 -151 -24 -31 c-14 -18 -34 -56 -45 -86
-59 -150 -25 -314 90 -436 206 -218 555 -161 686 111 146 305 -118 652 -453
595 -42 -7 -79 -10 -82 -6 -4 3 -74 86 -157 183 -82 97 -161 182 -175 189 -17
8 -73 13 -167 13 l-143 0 0 185 0 185 249 0 249 0 7 -30 c9 -41 74 -139 120
-179 22 -19 67 -47 101 -63 161 -75 335 -49 467 72 223 203 164 561 -113 694
-61 29 -73 31 -175 31 -104 0 -114 -2 -178 -33 -90 -44 -164 -119 -202 -205
l-30 -66 -242 -1 -243 0 0 140 0 140 149 0 c82 0 157 3 166 6 9 4 88 91 176
195 l159 188 32 -10 c18 -5 69 -9 114 -9 174 0 312 88 388 249 29 61 31 74 31
171 0 97 -2 110 -32 172 -53 113 -146 196 -262 233 -40 13 -76 16 -146 13 -79
-3 -101 -8 -158 -37 -128 -62 -213 -177 -238 -320 -17 -94 10 -206 70 -297
l21 -30 -127 -152 -126 -152 -108 0 -109 0 0 211 c0 222 -6 259 -48 286 -10 6
-68 21 -128 33 -135 27 -276 61 -416 102 l-108 31 0 192 0 193 151 126 151
126 32 -20 c168 -112 377 -96 521 41 100 94 140 196 133 334 -8 153 -94 282
-235 352 -63 31 -87 37 -157 41 -140 7 -240 -33 -335 -133 -94 -99 -131 -225
-107 -363 l12 -73 -180 -152 c-114 -95 -188 -165 -198 -187 -15 -30 -18 -64
-18 -219 0 -170 -1 -183 -17 -176 -88 33 -320 127 -330 133 -8 5 -12 72 -15
218 l-3 212 64 28 c124 54 220 180 244 321 27 157 -51 331 -187 418 -89 56
-180 76 -286 64z m104 -230 c98 -27 158 -137 132 -240 -31 -118 -167 -179
-277 -123 -66 33 -116 124 -106 195 11 82 55 136 133 164 48 17 68 18 118 4z
m-1226 -104 c105 -44 151 -165 103 -270 -88 -191 -370 -126 -371 84 0 139 143
238 268 186z m2552 -19 c101 -66 118 -201 37 -293 -40 -45 -82 -63 -147 -63
-111 0 -190 79 -190 189 0 87 37 145 115 183 54 25 133 19 185 -16z m-3534
-1052 c116 -55 145 -223 54 -314 -116 -116 -310 -51 -337 113 -12 74 43 173
112 203 42 18 130 17 171 -2z m4437 2 c44 -18 94 -77 108 -128 31 -116 -48
-230 -168 -245 -74 -8 -152 30 -189 93 -45 76 -29 191 32 245 55 48 150 64
217 35z m-2187 -95 c306 -136 657 -250 1007 -326 l77 -17 0 -783 0 -782 -66
-99 c-106 -159 -206 -279 -373 -445 -217 -215 -415 -365 -657 -495 l-104 -56
-108 57 c-393 207 -774 555 -1024 933 l-68 104 0 784 0 784 23 4 c12 3 67 15
122 26 300 62 708 198 960 320 44 21 85 39 91 39 6 1 60 -21 120 -48z m-2340
-1088 c93 -47 129 -181 74 -271 -60 -99 -211 -124 -296 -50 -61 54 -85 131
-64 207 13 50 72 112 120 128 48 16 120 10 166 -14z m4634 5 c65 -34 102 -86
108 -152 11 -131 -66 -216 -196 -216 -76 0 -139 38 -171 102 -81 169 94 349
259 266z m-4542 -1276 c102 -46 138 -199 70 -295 -24 -34 -109 -77 -152 -77
-113 0 -207 94 -206 206 1 66 75 166 133 178 52 12 64 13 92 8 17 -2 45 -11
63 -20z m4417 13 c59 -12 134 -112 135 -179 1 -111 -93 -206 -204 -206 -61 0
-141 53 -173 114 -43 82 -1 210 82 254 56 29 86 32 160 17z"/>
<path d="M3320 4954 c-112 -21 -240 -70 -342 -130 -106 -63 -257 -212 -321
-315 -149 -241 -191 -528 -117 -796 92 -333 367 -602 710 -695 72 -19 109 -23
245 -22 135 0 173 3 245 23 342 92 601 344 707 688 25 82 27 101 27 268 1 159
-2 189 -22 260 -102 351 -367 613 -708 701 -129 33 -303 40 -424 18z m349
-240 c144 -32 310 -135 407 -252 118 -143 176 -303 177 -487 0 -133 -19 -219
-73 -330 -38 -78 -105 -175 -125 -182 -5 -1 -26 27 -45 65 -49 95 -145 188
-247 239 l-81 41 39 21 c64 36 130 111 166 188 162 341 -167 712 -529 597 -77
-25 -163 -87 -213 -155 -148 -201 -98 -476 113 -621 l44 -30 -74 -36 c-96 -48
-209 -160 -257 -254 l-33 -66 -28 31 c-120 138 -190 351 -176 537 14 201 95
372 240 507 187 175 440 243 695 187z m-104 -315 c23 -7 57 -28 81 -53 85 -84
85 -208 0 -292 -84 -85 -208 -85 -292 0 -82 82 -85 203 -6 288 57 60 132 80
217 57z m90 -823 c93 -46 180 -160 187 -246 3 -33 1 -35 -62 -61 -136 -57
-294 -73 -437 -43 -93 19 -203 67 -203 88 0 40 45 130 91 181 109 119 279 151
424 81z"/>
<path d="M4720 2992 c-81 -81 -16 -218 93 -198 74 14 110 103 72 176 -19 37
-43 50 -95 50 -32 0 -48 -6 -70 -28z"/>
<path d="M2233 2596 c-48 -22 -68 -60 -68 -132 0 -74 22 -111 77 -132 30 -12
40 -11 71 1 45 19 69 56 75 115 10 108 -70 185 -155 148z"/>
<path d="M4614 2486 l-34 -34 0 -250 0 -250 26 -31 c47 -57 137 -50 175 13 17
28 19 54 19 264 0 256 -4 278 -60 307 -49 25 -88 19 -126 -19z"/>
<path d="M2613 2350 c-49 -29 -55 -69 -51 -329 3 -243 5 -253 59 -285 50 -29
114 -15 146 33 16 23 18 56 21 252 4 261 -2 300 -51 329 -18 11 -45 20 -62 20
-16 0 -44 -9 -62 -20z"/>
<path d="M3958 2185 c-51 -29 -58 -58 -58 -246 l0 -171 34 -34 c29 -29 41 -34
79 -34 34 0 53 6 74 24 l28 24 3 190 3 190 -28 32 c-34 38 -93 49 -135 25z"/>
<path d="M2000 671 c0 -39 0 -39 -29 -28 -41 15 -76 -2 -90 -46 -24 -73 32
-137 95 -108 15 6 24 7 24 1 0 -6 11 -10 25 -10 l25 0 0 115 0 115 -25 0 c-22
0 -25 -4 -25 -39z m-4 -85 c9 -38 -4 -66 -31 -66 -27 0 -40 28 -31 66 9 34 53
34 62 0z"/>
<path d="M2220 595 l0 -115 25 0 c14 0 25 4 25 9 0 5 13 4 29 -2 41 -15 76 2
90 46 24 73 -32 137 -95 108 -23 -10 -24 -9 -24 29 0 36 -3 40 -25 40 l-25 0
0 -115z m116 -9 c9 -38 -4 -66 -31 -66 -23 0 -35 17 -35 49 0 42 56 57 66 17z"/>
<path d="M4250 595 l0 -115 25 0 c14 0 25 4 25 9 0 5 13 4 29 -2 41 -15 76 2
90 46 24 73 -32 137 -95 108 -23 -10 -24 -9 -24 29 0 36 -3 40 -25 40 l-25 0
0 -115z m116 -9 c9 -38 -4 -66 -31 -66 -23 0 -35 17 -35 49 0 42 56 57 66 17z"/>
<path d="M4680 595 l0 -115 25 0 25 0 0 115 0 115 -25 0 -25 0 0 -115z"/>
<path d="M773 685 c-39 -17 -53 -42 -53 -95 0 -54 14 -79 55 -96 63 -26 135
-13 135 25 0 16 -4 17 -39 8 -57 -15 -91 8 -91 63 0 55 34 78 91 63 35 -9 39
-8 39 8 0 38 -75 51 -137 24z"/>
<path d="M1537 693 c-4 -3 -7 -15 -7 -25 0 -10 -7 -18 -15 -18 -8 0 -15 -7
-15 -15 0 -9 7 -18 15 -21 10 -4 15 -21 15 -54 0 -60 18 -80 71 -80 33 0 40 3
37 17 -2 9 -14 20 -28 23 -21 5 -25 12 -28 48 -3 41 -2 42 27 42 24 0 31 4 31
20 0 16 -7 20 -30 20 -25 0 -30 4 -30 25 0 18 -5 25 -18 25 -10 0 -22 -3 -25
-7z"/>
<path d="M2750 590 l0 -110 68 0 c80 0 112 17 112 60 0 16 -7 35 -15 44 -9 9
-11 17 -5 21 5 3 10 19 10 35 0 42 -32 60 -107 60 l-63 0 0 -110z m110 50 c0
-15 -7 -20 -25 -20 -18 0 -25 5 -25 20 0 15 7 20 25 20 18 0 25 -5 25 -20z m5
-90 c0 -20 -6 -26 -27 -28 -25 -3 -28 0 -28 28 0 28 3 31 28 28 21 -2 27 -8
27 -28z"/>
<path d="M3526 679 c-48 -38 -24 -89 49 -108 35 -9 46 -16 43 -29 -4 -18 -54
-23 -95 -8 -19 6 -23 4 -23 -14 0 -42 108 -56 154 -19 50 39 29 91 -44 109
-38 9 -50 16 -48 29 3 12 14 16 51 14 39 -1 47 2 47 17 0 36 -91 43 -134 9z"/>
<path d="M960 565 c0 -84 0 -85 25 -85 23 0 25 3 25 49 0 55 21 86 51 78 15
-4 19 0 19 19 0 26 -18 31 -51 14 -13 -7 -19 -7 -19 0 0 5 -11 10 -25 10 -25
0 -25 -1 -25 -85z"/>
<path d="M1124 626 c-60 -51 -20 -146 61 -146 44 0 85 16 85 33 0 11 -14 14
-56 13 -38 -1 -58 3 -61 12 -3 9 12 12 56 12 61 0 61 0 61 29 0 64 -93 94
-146 47z m94 -33 c2 -9 -8 -13 -32 -13 -34 0 -44 8 -29 24 11 11 56 2 61 -11z"/>
<path d="M1333 643 c-7 -2 -13 -11 -13 -19 0 -10 13 -14 44 -14 25 0 48 -4 51
-10 4 -6 -10 -10 -34 -10 -43 0 -81 -26 -81 -55 0 -22 37 -55 61 -55 11 0 29
5 40 10 13 7 19 7 19 0 0 -5 11 -10 25 -10 24 0 25 2 25 69 0 61 -3 72 -22 85
-21 15 -88 20 -115 9z m85 -100 c-4 -22 -58 -31 -58 -10 0 20 10 27 37 27 18
0 24 -5 21 -17z"/>
<path d="M1694 626 c-60 -51 -20 -146 61 -146 44 0 85 16 85 33 0 11 -14 14
-56 13 -38 -1 -58 3 -61 12 -3 9 12 12 56 12 61 0 61 0 61 29 0 64 -93 94
-146 47z m94 -33 c2 -9 -8 -13 -32 -13 -34 0 -44 8 -29 24 11 11 56 2 61 -11z"/>
<path d="M2420 641 c0 -5 16 -44 36 -87 33 -73 34 -79 18 -91 -10 -7 -21 -13
-26 -13 -4 0 -8 -7 -8 -15 0 -21 53 -19 73 3 14 16 87 186 87 204 0 4 -11 8
-24 8 -20 0 -27 -8 -41 -50 -9 -28 -20 -48 -24 -45 -5 2 -16 25 -25 50 -14 36
-22 45 -42 45 -13 0 -24 -4 -24 -9z"/>
<path d="M2994 626 c-39 -33 -39 -89 0 -122 58 -51 156 -12 156 61 0 73 -98
112 -156 61z m91 -61 c0 -36 -3 -40 -27 -43 -30 -4 -44 23 -34 64 5 20 12 25
34 22 24 -3 27 -7 27 -43z"/>
<path d="M3190 565 c0 -84 0 -85 25 -85 24 0 25 3 25 53 0 52 12 77 37 77 9 0
13 -18 13 -65 l0 -65 30 0 c30 0 30 1 30 53 0 59 11 83 34 74 12 -5 16 -21 16
-67 l0 -60 31 0 31 0 -4 71 c-3 55 -8 74 -23 85 -25 18 -59 18 -75 -1 -10 -12
-15 -12 -37 2 -20 13 -31 14 -54 6 -16 -6 -29 -7 -29 -2 0 5 -11 9 -25 9 -25
0 -25 -1 -25 -85z"/>
<path d="M3710 641 c0 -5 16 -44 36 -87 33 -73 34 -79 18 -91 -10 -7 -21 -13
-26 -13 -4 0 -8 -7 -8 -15 0 -21 53 -19 73 3 14 16 87 186 87 204 0 4 -11 8
-24 8 -20 0 -27 -8 -41 -50 -9 -28 -20 -48 -24 -45 -5 2 -16 25 -25 50 -14 36
-22 45 -42 45 -13 0 -24 -4 -24 -9z"/>
<path d="M3930 565 c0 -84 0 -85 25 -85 24 0 25 3 25 53 0 52 12 77 37 77 9 0
13 -18 13 -65 l0 -65 30 0 c30 0 30 1 30 53 0 59 11 83 34 74 12 -5 16 -21 16
-67 l0 -60 31 0 31 0 -4 71 c-3 55 -8 74 -23 85 -25 18 -59 18 -75 -1 -10 -12
-15 -12 -37 2 -20 13 -31 14 -54 6 -16 -6 -29 -7 -29 -2 0 5 -11 9 -25 9 -25
0 -25 -1 -25 -85z"/>
<path d="M4484 626 c-39 -33 -39 -89 0 -122 58 -51 156 -12 156 61 0 73 -98
112 -156 61z m91 -61 c0 -36 -3 -40 -27 -43 -30 -4 -44 23 -34 64 5 20 12 25
34 22 24 -3 27 -7 27 -43z"/>
<path d="M4798 639 c-11 -6 -18 -22 -18 -40 0 -31 14 -41 74 -54 43 -9 17 -28
-33 -23 -33 3 -41 0 -41 -13 0 -21 20 -29 70 -29 51 0 85 28 76 63 -6 25 -12
29 -68 41 -46 10 -33 28 17 24 37 -2 45 0 45 13 0 9 -7 20 -16 23 -24 9 -87 7
-106 -5z"/>
<path d="M747 382 c-10 -10 -17 -24 -17 -30 0 -7 -4 -12 -10 -12 -5 0 -10 -9
-10 -20 0 -11 5 -20 10 -20 6 0 10 -28 10 -65 l0 -65 30 0 30 0 0 65 c0 58 2
65 20 65 13 0 20 7 20 20 0 13 -7 20 -20 20 -28 0 -25 18 5 26 14 3 25 12 25
20 0 22 -73 18 -93 -4z"/>
<path d="M1800 285 l0 -115 25 0 c24 0 25 3 25 54 0 56 17 83 45 72 11 -4 15
-21 15 -66 l0 -60 30 0 c29 0 30 2 30 43 0 70 -17 116 -46 123 -14 4 -36 2
-50 -5 -23 -10 -24 -9 -24 29 0 36 -3 40 -25 40 l-25 0 0 -115z"/>
<path d="M3950 380 c0 -15 7 -20 25 -20 18 0 25 5 25 20 0 15 -7 20 -25 20
-18 0 -25 -5 -25 -20z"/>
<path d="M1657 383 c-4 -3 -7 -15 -7 -25 0 -10 -7 -18 -15 -18 -8 0 -15 -7
-15 -15 0 -9 7 -18 15 -21 10 -4 15 -21 15 -54 0 -60 18 -80 71 -80 33 0 40 3
37 17 -2 9 -14 20 -28 23 -21 5 -25 12 -28 48 -3 41 -2 42 27 42 24 0 31 4 31
20 0 16 -7 20 -30 20 -25 0 -30 4 -30 25 0 18 -5 25 -18 25 -10 0 -22 -3 -25
-7z"/>
<path d="M2340 280 l0 -110 25 0 c23 0 24 3 27 73 l3 72 40 -72 c36 -68 42
-73 72 -73 l33 0 0 110 0 110 -30 0 c-29 0 -29 0 -32 -67 l-3 -68 -35 68 c-32
62 -37 67 -67 67 l-33 0 0 -110z"/>
<path d="M3360 280 l0 -110 30 0 c28 0 30 2 30 40 l0 40 40 0 c48 0 80 27 80
68 0 52 -33 72 -119 72 l-61 0 0 -110z m115 40 c0 -20 -6 -26 -27 -28 -25 -3
-28 0 -28 28 0 28 3 31 28 28 21 -2 27 -8 27 -28z"/>
<path d="M4457 383 c-4 -3 -7 -15 -7 -25 0 -10 -7 -18 -15 -18 -8 0 -15 -7
-15 -15 0 -9 7 -18 15 -21 10 -4 15 -21 15 -54 0 -60 18 -80 71 -80 33 0 40 3
37 17 -2 9 -14 20 -28 23 -21 5 -25 12 -28 48 -3 41 -2 42 27 42 24 0 31 4 31
20 0 16 -7 20 -30 20 -25 0 -30 4 -30 25 0 18 -5 25 -18 25 -10 0 -22 -3 -25
-7z"/>
<path d="M860 255 c0 -84 0 -85 25 -85 23 0 25 3 25 49 0 55 21 86 51 78 15
-4 19 0 19 19 0 26 -18 31 -51 14 -13 -7 -19 -7 -19 0 0 5 -11 10 -25 10 -25
0 -25 -1 -25 -85z"/>
<path d="M1024 316 c-58 -49 -20 -146 56 -146 56 0 100 37 100 85 0 73 -98
112 -156 61z m91 -61 c0 -36 -3 -40 -27 -43 -30 -4 -44 23 -34 64 5 20 12 25
34 22 24 -3 27 -7 27 -43z"/>
<path d="M1220 255 c0 -84 0 -85 25 -85 24 0 25 3 25 53 0 52 12 77 37 77 9 0
13 -18 13 -65 l0 -65 30 0 c30 0 30 1 30 53 0 59 11 83 34 74 12 -5 16 -21 16
-67 l0 -60 31 0 31 0 -4 71 c-3 55 -8 74 -23 85 -25 18 -59 18 -75 -1 -10 -12
-15 -12 -37 2 -20 13 -31 14 -54 6 -16 -6 -29 -7 -29 -2 0 5 -11 9 -25 9 -25
0 -25 -1 -25 -85z"/>
<path d="M2034 316 c-60 -51 -20 -146 61 -146 44 0 85 16 85 33 0 11 -14 14
-56 13 -38 -1 -58 3 -61 12 -3 9 12 12 56 12 61 0 61 0 61 29 0 64 -93 94
-146 47z m94 -33 c2 -9 -8 -13 -32 -13 -34 0 -44 8 -29 24 11 11 56 2 61 -11z"/>
<path d="M2614 316 c-39 -33 -39 -89 0 -122 58 -51 156 -12 156 61 0 73 -98
112 -156 61z m91 -61 c0 -36 -3 -40 -27 -43 -30 -4 -44 23 -34 64 5 20 12 25
34 22 24 -3 27 -7 27 -43z"/>
<path d="M2800 286 c0 -30 4 -66 10 -80 11 -30 51 -43 86 -27 15 6 24 7 24 1
0 -6 11 -10 25 -10 25 0 25 1 25 85 0 84 0 85 -25 85 -24 0 -25 -3 -25 -54 0
-56 -17 -83 -45 -72 -11 4 -15 21 -15 66 l0 60 -30 0 c-30 0 -30 -1 -30 -54z"/>
<path d="M3030 255 c0 -84 0 -85 25 -85 24 0 25 3 25 54 0 56 17 83 45 72 11
-4 15 -21 15 -66 l0 -60 30 0 c29 0 30 2 30 43 0 70 -17 116 -46 123 -14 4
-36 2 -50 -5 -15 -6 -24 -7 -24 -1 0 6 -11 10 -25 10 -25 0 -25 -1 -25 -85z"/>
<path d="M3590 255 c0 -84 0 -85 25 -85 23 0 25 3 25 49 0 55 21 86 51 78 15
-4 19 0 19 19 0 26 -18 31 -51 14 -13 -7 -19 -7 -19 0 0 5 -11 10 -25 10 -25
0 -25 -1 -25 -85z"/>
<path d="M3754 316 c-39 -33 -39 -89 0 -122 58 -51 156 -12 156 61 0 73 -98
112 -156 61z m91 -61 c0 -36 -3 -40 -27 -43 -30 -4 -44 23 -34 64 5 20 12 25
34 22 24 -3 27 -7 27 -43z"/>
<path d="M3950 255 c0 -73 -3 -88 -20 -102 -27 -24 -25 -43 5 -43 51 0 65 30
65 135 0 95 0 95 -25 95 -25 0 -25 -1 -25 -85z"/>
<path d="M4074 316 c-60 -51 -20 -146 61 -146 44 0 85 16 85 33 0 11 -14 14
-56 13 -38 -1 -58 3 -61 12 -3 9 12 12 56 12 61 0 61 0 61 29 0 64 -93 94
-146 47z m94 -33 c2 -9 -8 -13 -32 -13 -34 0 -44 8 -29 24 11 11 56 2 61 -11z"/>
<path d="M4284 317 c-64 -56 -18 -151 70 -145 33 2 42 7 44 24 3 18 -1 20 -28
16 -36 -5 -60 12 -60 43 0 31 24 48 60 43 27 -4 31 -2 28 16 -5 33 -77 35
-114 3z"/>
</g>
</svg>
